# xmcd
#
# Track frame offsets:
# 150
# 21180
# 41562
# 59389
# 84166
# 112065
# 125521
# 144550
# 159970
#
# Disc length: 2560 seconds
#
#
# Revision: 0
# Processed by: cddbd v1.5.1PL2 Copyright (c) Steve Scherf et al.
# Submitted via: FreeRIP 2.50 
#
DISCID=7109fe09
DTITLE=Ryan Shupe and The Rubberband - Simplified
DYEAR=1999
DGENRE=Bluegrass
TTITLE0=It's Clear
TTITLE1=Snow
TTITLE2=1000X
TTITLE3=Phideaux
TTITLE4=The Bomb Song
TTITLE5=If I Had The Things I Wanted
TTITLE6=Freeway
TTITLE7=Go To Hell
TTITLE8=Same Sun
EXTD=
EXTT0=
EXTT1=
EXTT2=
EXTT3=
EXTT4=
EXTT5=
EXTT6=
EXTT7=
EXTT8=
PLAYORDER=
